<mxfile host="app.diagrams.net" modified="2024-02-17T18:42:04.364Z" agent="Mozilla/5.0 (Windows NT 10.0; Win64; x64) AppleWebKit/537.36 (KHTML, like Gecko) Chrome/121.0.0.0 Safari/537.36" etag="C59695yTZ97uoRJtx-Dz" version="23.1.5" type="device">
  <diagram name="Page-1" id="V96OR2ep9DXPKzGtc8qw">
    <mxGraphModel dx="1648" dy="992" grid="1" gridSize="10" guides="1" tooltips="1" connect="1" arrows="1" fold="1" page="1" pageScale="1" pageWidth="1100" pageHeight="850" math="0" shadow="0">
      <root>
        <mxCell id="0" />
        <mxCell id="1" parent="0" />
        <mxCell id="uz5QgHpY2Cw1FlYYKC5Z-1" value="&lt;font style=&quot;font-size: 24px;&quot;&gt;Signup&lt;/font&gt;" style="rounded=1;whiteSpace=wrap;html=1;fillColor=none;fontColor=#2563EB;strokeColor=#2563EB;" vertex="1" parent="1">
          <mxGeometry x="10" y="446" width="120" height="52" as="geometry" />
        </mxCell>
        <mxCell id="uz5QgHpY2Cw1FlYYKC5Z-27" value="" style="edgeStyle=orthogonalEdgeStyle;rounded=0;orthogonalLoop=1;jettySize=auto;html=1;fontColor=#2563EB;labelBackgroundColor=none;labelBorderColor=none;strokeColor=#2563EB;" edge="1" parent="1" source="uz5QgHpY2Cw1FlYYKC5Z-1">
          <mxGeometry relative="1" as="geometry">
            <mxPoint x="220" y="392" as="targetPoint" />
          </mxGeometry>
        </mxCell>
        <mxCell id="uz5QgHpY2Cw1FlYYKC5Z-30" value="" style="edgeStyle=orthogonalEdgeStyle;rounded=0;orthogonalLoop=1;jettySize=auto;html=1;fontColor=#2563EB;labelBackgroundColor=none;labelBorderColor=none;strokeColor=#2563EB;" edge="1" parent="1" source="uz5QgHpY2Cw1FlYYKC5Z-1" target="uz5QgHpY2Cw1FlYYKC5Z-3">
          <mxGeometry relative="1" as="geometry" />
        </mxCell>
        <mxCell id="uz5QgHpY2Cw1FlYYKC5Z-3" value="&lt;font style=&quot;font-size: 14px;&quot;&gt;Signup providing Details&lt;/font&gt;" style="rounded=1;whiteSpace=wrap;html=1;fontColor=#2563EB;labelBackgroundColor=none;labelBorderColor=none;strokeColor=#FF3333;" vertex="1" parent="1">
          <mxGeometry x="160" y="550" width="120" height="60" as="geometry" />
        </mxCell>
        <mxCell id="uz5QgHpY2Cw1FlYYKC5Z-21" value="" style="edgeStyle=orthogonalEdgeStyle;rounded=0;orthogonalLoop=1;jettySize=auto;html=1;fontColor=#2563EB;labelBackgroundColor=none;labelBorderColor=none;strokeColor=#FF3333;" edge="1" parent="1" target="uz5QgHpY2Cw1FlYYKC5Z-20">
          <mxGeometry relative="1" as="geometry">
            <mxPoint x="280" y="593" as="sourcePoint" />
          </mxGeometry>
        </mxCell>
        <mxCell id="uz5QgHpY2Cw1FlYYKC5Z-20" value="&lt;font style=&quot;font-size: 14px;&quot;&gt;An User profile with username, firstname, lastname, isActive = false is created.&lt;br&gt;An Activation email is sent.&lt;br&gt;&lt;/font&gt;" style="rounded=1;whiteSpace=wrap;html=1;fontColor=#2563EB;labelBackgroundColor=none;labelBorderColor=none;strokeColor=#FF3333;" vertex="1" parent="1">
          <mxGeometry x="360" y="563" width="210" height="120" as="geometry" />
        </mxCell>
        <mxCell id="uz5QgHpY2Cw1FlYYKC5Z-24" value="" style="edgeStyle=orthogonalEdgeStyle;rounded=0;orthogonalLoop=1;jettySize=auto;html=1;fontColor=#2563EB;labelBackgroundColor=none;labelBorderColor=none;strokeColor=#FF3333;" edge="1" parent="1" source="uz5QgHpY2Cw1FlYYKC5Z-20" target="uz5QgHpY2Cw1FlYYKC5Z-22">
          <mxGeometry relative="1" as="geometry" />
        </mxCell>
        <mxCell id="uz5QgHpY2Cw1FlYYKC5Z-22" value="&lt;font style=&quot;font-size: 14px;&quot;&gt;User clicks on the activation link. Which results isActive = true. And redirected to login page.&lt;/font&gt;" style="rounded=1;whiteSpace=wrap;html=1;fontColor=#2563EB;labelBackgroundColor=none;labelBorderColor=none;strokeColor=#FF3333;" vertex="1" parent="1">
          <mxGeometry x="620" y="563" width="230" height="120" as="geometry" />
        </mxCell>
        <mxCell id="uz5QgHpY2Cw1FlYYKC5Z-25" value="" style="edgeStyle=orthogonalEdgeStyle;rounded=0;orthogonalLoop=1;jettySize=auto;html=1;fontColor=#2563EB;labelBackgroundColor=none;labelBorderColor=none;strokeColor=#FF3333;" edge="1" parent="1" source="uz5QgHpY2Cw1FlYYKC5Z-22">
          <mxGeometry relative="1" as="geometry">
            <mxPoint x="910" y="623" as="targetPoint" />
          </mxGeometry>
        </mxCell>
        <mxCell id="uz5QgHpY2Cw1FlYYKC5Z-23" value="&lt;font style=&quot;font-size: 14px;&quot;&gt;User can Sign In now with providing email and password&lt;/font&gt;" style="rounded=1;whiteSpace=wrap;html=1;fontColor=#2563EB;labelBackgroundColor=none;labelBorderColor=none;strokeColor=#FF3333;" vertex="1" parent="1">
          <mxGeometry x="910" y="558" width="180" height="120" as="geometry" />
        </mxCell>
        <mxCell id="uz5QgHpY2Cw1FlYYKC5Z-31" value="&lt;font style=&quot;font-size: 14px;&quot;&gt;Continue with Google&lt;/font&gt;" style="rounded=1;whiteSpace=wrap;html=1;fontColor=#2563EB;labelBackgroundColor=none;labelBorderColor=none;strokeColor=#2563EB;" vertex="1" parent="1">
          <mxGeometry x="160" y="333" width="120" height="60" as="geometry" />
        </mxCell>
        <mxCell id="uz5QgHpY2Cw1FlYYKC5Z-32" value="" style="edgeStyle=orthogonalEdgeStyle;rounded=0;orthogonalLoop=1;jettySize=auto;html=1;strokeColor=#CCCC00;" edge="1" parent="1" source="uz5QgHpY2Cw1FlYYKC5Z-44">
          <mxGeometry relative="1" as="geometry">
            <mxPoint x="600" y="141" as="targetPoint" />
          </mxGeometry>
        </mxCell>
        <mxCell id="uz5QgHpY2Cw1FlYYKC5Z-33" value="&lt;font style=&quot;font-size: 14px;&quot;&gt;An User profile with username, firstname, lastname, isActive = true is created&lt;/font&gt;" style="rounded=1;whiteSpace=wrap;html=1;fontColor=#2563EB;labelBackgroundColor=none;labelBorderColor=none;strokeColor=#CCCC00;" vertex="1" parent="1">
          <mxGeometry x="600" y="90" width="210" height="120" as="geometry" />
        </mxCell>
        <mxCell id="uz5QgHpY2Cw1FlYYKC5Z-34" value="" style="edgeStyle=orthogonalEdgeStyle;rounded=0;orthogonalLoop=1;jettySize=auto;html=1;fontColor=#2563EB;labelBackgroundColor=none;labelBorderColor=none;strokeColor=#CCCC00;" edge="1" parent="1">
          <mxGeometry relative="1" as="geometry">
            <mxPoint x="705" y="210" as="sourcePoint" />
            <mxPoint x="705" y="293" as="targetPoint" />
          </mxGeometry>
        </mxCell>
        <mxCell id="uz5QgHpY2Cw1FlYYKC5Z-35" value="" style="edgeStyle=orthogonalEdgeStyle;rounded=0;orthogonalLoop=1;jettySize=auto;html=1;strokeColor=#009900;" edge="1" parent="1" source="uz5QgHpY2Cw1FlYYKC5Z-42">
          <mxGeometry relative="1" as="geometry">
            <mxPoint x="615" y="353" as="targetPoint" />
          </mxGeometry>
        </mxCell>
        <mxCell id="uz5QgHpY2Cw1FlYYKC5Z-36" value="&lt;font style=&quot;font-size: 14px;&quot;&gt;User is sent to front-end with Secret JWT token as &quot;auth_cookie&quot; cookie&lt;/font&gt;" style="rounded=1;whiteSpace=wrap;html=1;fontColor=#2563EB;labelBackgroundColor=none;labelBorderColor=none;strokeColor=#009900;" vertex="1" parent="1">
          <mxGeometry x="615" y="292" width="180" height="120" as="geometry" />
        </mxCell>
        <mxCell id="uz5QgHpY2Cw1FlYYKC5Z-37" value="" style="edgeStyle=orthogonalEdgeStyle;rounded=0;orthogonalLoop=1;jettySize=auto;html=1;" edge="1" parent="1">
          <mxGeometry relative="1" as="geometry">
            <mxPoint x="795" y="353" as="sourcePoint" />
            <mxPoint x="830" y="353" as="targetPoint" />
          </mxGeometry>
        </mxCell>
        <mxCell id="uz5QgHpY2Cw1FlYYKC5Z-38" value="&lt;span style=&quot;font-size: 14px;&quot;&gt;Front-end retrives jwt token which will be used for any future request. Also gets Refresh token.&lt;br&gt;JWT token saved in Redux state. User remains Logged In.&lt;br&gt;&lt;/span&gt;" style="rounded=1;whiteSpace=wrap;html=1;fontColor=#2563EB;labelBackgroundColor=none;labelBorderColor=none;strokeColor=#009900;" vertex="1" parent="1">
          <mxGeometry x="830" y="292" width="260" height="120" as="geometry" />
        </mxCell>
        <mxCell id="uz5QgHpY2Cw1FlYYKC5Z-39" value="" style="edgeStyle=orthogonalEdgeStyle;rounded=0;orthogonalLoop=1;jettySize=auto;html=1;exitX=0.5;exitY=0;exitDx=0;exitDy=0;strokeColor=#2563EB;entryX=0;entryY=0.5;entryDx=0;entryDy=0;" edge="1" parent="1" source="uz5QgHpY2Cw1FlYYKC5Z-31" target="uz5QgHpY2Cw1FlYYKC5Z-46">
          <mxGeometry relative="1" as="geometry">
            <mxPoint x="95" y="251" as="sourcePoint" />
            <Array as="points">
              <mxPoint x="220" y="236" />
            </Array>
            <mxPoint x="280" y="251" as="targetPoint" />
          </mxGeometry>
        </mxCell>
        <mxCell id="uz5QgHpY2Cw1FlYYKC5Z-41" value="" style="edgeStyle=orthogonalEdgeStyle;rounded=0;orthogonalLoop=1;jettySize=auto;html=1;strokeColor=#009900;exitX=0.5;exitY=1;exitDx=0;exitDy=0;" edge="1" parent="1" target="uz5QgHpY2Cw1FlYYKC5Z-42" source="uz5QgHpY2Cw1FlYYKC5Z-46">
          <mxGeometry relative="1" as="geometry">
            <mxPoint x="350" y="281" as="sourcePoint" />
            <Array as="points">
              <mxPoint x="350" y="353" />
            </Array>
          </mxGeometry>
        </mxCell>
        <mxCell id="uz5QgHpY2Cw1FlYYKC5Z-42" value="&lt;font style=&quot;font-size: 14px;&quot;&gt;Yes&lt;/font&gt;" style="ellipse;whiteSpace=wrap;html=1;strokeColor=#009900;" vertex="1" parent="1">
          <mxGeometry x="470" y="333" width="70" height="40" as="geometry" />
        </mxCell>
        <mxCell id="uz5QgHpY2Cw1FlYYKC5Z-43" value="" style="edgeStyle=orthogonalEdgeStyle;rounded=0;orthogonalLoop=1;jettySize=auto;html=1;exitX=0.5;exitY=0;exitDx=0;exitDy=0;strokeColor=#CCCC00;" edge="1" parent="1" source="uz5QgHpY2Cw1FlYYKC5Z-46" target="uz5QgHpY2Cw1FlYYKC5Z-44">
          <mxGeometry relative="1" as="geometry">
            <mxPoint x="350" y="209" as="sourcePoint" />
            <Array as="points">
              <mxPoint x="350" y="141" />
            </Array>
          </mxGeometry>
        </mxCell>
        <mxCell id="uz5QgHpY2Cw1FlYYKC5Z-44" value="&lt;font style=&quot;font-size: 14px;&quot;&gt;No&lt;/font&gt;" style="ellipse;whiteSpace=wrap;html=1;strokeColor=#CCCC00;" vertex="1" parent="1">
          <mxGeometry x="470" y="121" width="70" height="40" as="geometry" />
        </mxCell>
        <mxCell id="uz5QgHpY2Cw1FlYYKC5Z-46" value="Check if user profile&lt;br&gt;&amp;nbsp;with user&#39;s email&lt;br&gt;&amp;nbsp;exists?" style="rhombus;whiteSpace=wrap;html=1;strokeColor=#0000FF;rounded=1;" vertex="1" parent="1">
          <mxGeometry x="270" y="161" width="160" height="150" as="geometry" />
        </mxCell>
      </root>
    </mxGraphModel>
  </diagram>
</mxfile>
